<svg xmlns="http://www.w3.org/2000/svg" width="1268.0" height="560" viewBox="0 0 1268.0 560">
    <!-- Header Row -->
    <rect x="0" y="0" width="1268.0" height="40" fill="black" />
	<text x="10" y="24.0" fill="white" font-family="Arial" font-size="14">Operation \ Size</text>
	<text x="383.0" y="24.0" fill="white" font-family="Arial" font-size="14">FheUint4</text>
	<text x="515.0" y="24.0" fill="white" font-family="Arial" font-size="14">FheUint8</text>
	<text x="643.0" y="24.0" fill="white" font-family="Arial" font-size="14">FheUint16</text>
	<text x="775.0" y="24.0" fill="white" font-family="Arial" font-size="14">FheUint32</text>
	<text x="907.0" y="24.0" fill="white" font-family="Arial" font-size="14">FheUint64</text>
	<text x="1035.0" y="24.0" fill="white" font-family="Arial" font-size="14">FheUint128</text>
	<text x="1167.0" y="24.0" fill="white" font-family="Arial" font-size="14">FheUint256</text>

    <!-- Data Rows -->
    <rect x="0" y="40" width="1268.0" height="40" fill="#fbbc04" />
	<text x="10" y="64.0" fill="black" font-family="Arial" font-size="14">Negation (`-`)</text>
	<rect x="344.0" y="40" width="1268.0" height="40" fill="#f3f3f3" />
	<text x="387.0" y="64.0" fill="black" font-family="Arial" font-size="14">33.1 ms</text>
	<rect x="476.0" y="40" width="1268.0" height="40" fill="#f3f3f3" />
	<text x="519.0" y="64.0" fill="black" font-family="Arial" font-size="14">48.7 ms</text>
	<rect x="608.0" y="40" width="1268.0" height="40" fill="#f3f3f3" />
	<text x="651.0" y="64.0" fill="black" font-family="Arial" font-size="14">57.6 ms</text>
	<rect x="740.0" y="40" width="1268.0" height="40" fill="#f3f3f3" />
	<text x="783.0" y="64.0" fill="black" font-family="Arial" font-size="14">81.2 ms</text>
	<rect x="872.0" y="40" width="1268.0" height="40" fill="#f3f3f3" />
	<text x="919.0" y="64.0" fill="black" font-family="Arial" font-size="14">106 ms</text>
	<rect x="1004.0" y="40" width="1268.0" height="40" fill="#f3f3f3" />
	<text x="1051.0" y="64.0" fill="black" font-family="Arial" font-size="14">168 ms</text>
	<rect x="1136.0" y="40" width="1268.0" height="40" fill="#f3f3f3" />
	<text x="1183.0" y="64.0" fill="black" font-family="Arial" font-size="14">189 ms</text>
	<rect x="0" y="80" width="1268.0" height="40" fill="#fbbc04" />
	<text x="10" y="104.0" fill="black" font-family="Arial" font-size="14">Add / Sub (`+`,`-`)</text>
	<rect x="344.0" y="80" width="1268.0" height="40" fill="#f3f3f3" />
	<text x="387.0" y="104.0" fill="black" font-family="Arial" font-size="14">38.1 ms</text>
	<rect x="476.0" y="80" width="1268.0" height="40" fill="#f3f3f3" />
	<text x="519.0" y="104.0" fill="black" font-family="Arial" font-size="14">59.9 ms</text>
	<rect x="608.0" y="80" width="1268.0" height="40" fill="#f3f3f3" />
	<text x="651.0" y="104.0" fill="black" font-family="Arial" font-size="14">60.2 ms</text>
	<rect x="740.0" y="80" width="1268.0" height="40" fill="#f3f3f3" />
	<text x="783.0" y="104.0" fill="black" font-family="Arial" font-size="14">82.2 ms</text>
	<rect x="872.0" y="80" width="1268.0" height="40" fill="#f3f3f3" />
	<text x="919.0" y="104.0" fill="black" font-family="Arial" font-size="14">105 ms</text>
	<rect x="1004.0" y="80" width="1268.0" height="40" fill="#f3f3f3" />
	<text x="1051.0" y="104.0" fill="black" font-family="Arial" font-size="14">168 ms</text>
	<rect x="1136.0" y="80" width="1268.0" height="40" fill="#f3f3f3" />
	<text x="1183.0" y="104.0" fill="black" font-family="Arial" font-size="14">182 ms</text>
	<rect x="0" y="120" width="1268.0" height="40" fill="#fbbc04" />
	<text x="10" y="144.0" fill="black" font-family="Arial" font-size="14">Mul (`x`)</text>
	<rect x="344.0" y="120" width="1268.0" height="40" fill="#f3f3f3" />
	<text x="387.0" y="144.0" fill="black" font-family="Arial" font-size="14">40.6 ms</text>
	<rect x="476.0" y="120" width="1268.0" height="40" fill="#f3f3f3" />
	<text x="523.0" y="144.0" fill="black" font-family="Arial" font-size="14">103 ms</text>
	<rect x="608.0" y="120" width="1268.0" height="40" fill="#f3f3f3" />
	<text x="655.0" y="144.0" fill="black" font-family="Arial" font-size="14">143 ms</text>
	<rect x="740.0" y="120" width="1268.0" height="40" fill="#f3f3f3" />
	<text x="787.0" y="144.0" fill="black" font-family="Arial" font-size="14">219 ms</text>
	<rect x="872.0" y="120" width="1268.0" height="40" fill="#f3f3f3" />
	<text x="919.0" y="144.0" fill="black" font-family="Arial" font-size="14">401 ms</text>
	<rect x="1004.0" y="120" width="1268.0" height="40" fill="#f3f3f3" />
	<text x="1051.0" y="144.0" fill="black" font-family="Arial" font-size="14">1.15 s</text>
	<rect x="1136.0" y="120" width="1268.0" height="40" fill="#f3f3f3" />
	<text x="1183.0" y="144.0" fill="black" font-family="Arial" font-size="14">3.84 s</text>
	<rect x="0" y="160" width="1268.0" height="40" fill="#fbbc04" />
	<text x="10" y="184.0" fill="black" font-family="Arial" font-size="14">Equal / Not Equal (`eq`, `ne`)</text>
	<rect x="344.0" y="160" width="1268.0" height="40" fill="#f3f3f3" />
	<text x="387.0" y="184.0" fill="black" font-family="Arial" font-size="14">36.5 ms</text>
	<rect x="476.0" y="160" width="1268.0" height="40" fill="#f3f3f3" />
	<text x="519.0" y="184.0" fill="black" font-family="Arial" font-size="14">37.1 ms</text>
	<rect x="608.0" y="160" width="1268.0" height="40" fill="#f3f3f3" />
	<text x="651.0" y="184.0" fill="black" font-family="Arial" font-size="14">58.3 ms</text>
	<rect x="740.0" y="160" width="1268.0" height="40" fill="#f3f3f3" />
	<text x="783.0" y="184.0" fill="black" font-family="Arial" font-size="14">59.0 ms</text>
	<rect x="872.0" y="160" width="1268.0" height="40" fill="#f3f3f3" />
	<text x="915.0" y="184.0" fill="black" font-family="Arial" font-size="14">81.2 ms</text>
	<rect x="1004.0" y="160" width="1268.0" height="40" fill="#f3f3f3" />
	<text x="1047.0" y="184.0" fill="black" font-family="Arial" font-size="14">82.3 ms</text>
	<rect x="1136.0" y="160" width="1268.0" height="40" fill="#f3f3f3" />
	<text x="1183.0" y="184.0" fill="black" font-family="Arial" font-size="14">106 ms</text>
	<rect x="0" y="200" width="1268.0" height="40" fill="#fbbc04" />
	<text x="10" y="224.0" fill="black" font-family="Arial" font-size="14">Comparisons  (`ge`, `gt`, `le`, `lt`)</text>
	<rect x="344.0" y="200" width="1268.0" height="40" fill="#f3f3f3" />
	<text x="387.0" y="224.0" fill="black" font-family="Arial" font-size="14">36.3 ms</text>
	<rect x="476.0" y="200" width="1268.0" height="40" fill="#f3f3f3" />
	<text x="519.0" y="224.0" fill="black" font-family="Arial" font-size="14">37.4 ms</text>
	<rect x="608.0" y="200" width="1268.0" height="40" fill="#f3f3f3" />
	<text x="651.0" y="224.0" fill="black" font-family="Arial" font-size="14">57.2 ms</text>
	<rect x="740.0" y="200" width="1268.0" height="40" fill="#f3f3f3" />
	<text x="783.0" y="224.0" fill="black" font-family="Arial" font-size="14">80.1 ms</text>
	<rect x="872.0" y="200" width="1268.0" height="40" fill="#f3f3f3" />
	<text x="919.0" y="224.0" fill="black" font-family="Arial" font-size="14">102 ms</text>
	<rect x="1004.0" y="200" width="1268.0" height="40" fill="#f3f3f3" />
	<text x="1051.0" y="224.0" fill="black" font-family="Arial" font-size="14">145 ms</text>
	<rect x="1136.0" y="200" width="1268.0" height="40" fill="#f3f3f3" />
	<text x="1183.0" y="224.0" fill="black" font-family="Arial" font-size="14">175 ms</text>
	<rect x="0" y="240" width="1268.0" height="40" fill="#fbbc04" />
	<text x="10" y="264.0" fill="black" font-family="Arial" font-size="14">Max / Min   (`max`,`min`)</text>
	<rect x="344.0" y="240" width="1268.0" height="40" fill="#f3f3f3" />
	<text x="387.0" y="264.0" fill="black" font-family="Arial" font-size="14">79.4 ms</text>
	<rect x="476.0" y="240" width="1268.0" height="40" fill="#f3f3f3" />
	<text x="519.0" y="264.0" fill="black" font-family="Arial" font-size="14">79.8 ms</text>
	<rect x="608.0" y="240" width="1268.0" height="40" fill="#f3f3f3" />
	<text x="651.0" y="264.0" fill="black" font-family="Arial" font-size="14">99.8 ms</text>
	<rect x="740.0" y="240" width="1268.0" height="40" fill="#f3f3f3" />
	<text x="787.0" y="264.0" fill="black" font-family="Arial" font-size="14">122 ms</text>
	<rect x="872.0" y="240" width="1268.0" height="40" fill="#f3f3f3" />
	<text x="919.0" y="264.0" fill="black" font-family="Arial" font-size="14">145 ms</text>
	<rect x="1004.0" y="240" width="1268.0" height="40" fill="#f3f3f3" />
	<text x="1051.0" y="264.0" fill="black" font-family="Arial" font-size="14">192 ms</text>
	<rect x="1136.0" y="240" width="1268.0" height="40" fill="#f3f3f3" />
	<text x="1183.0" y="264.0" fill="black" font-family="Arial" font-size="14">246 ms</text>
	<rect x="0" y="280" width="1268.0" height="40" fill="#fbbc04" />
	<text x="10" y="304.0" fill="black" font-family="Arial" font-size="14">Bitwise operations (`&#38;`, `&#124;`, `^`)</text>
	<rect x="344.0" y="280" width="1268.0" height="40" fill="#f3f3f3" />
	<text x="387.0" y="304.0" fill="black" font-family="Arial" font-size="14">19.8 ms</text>
	<rect x="476.0" y="280" width="1268.0" height="40" fill="#f3f3f3" />
	<text x="519.0" y="304.0" fill="black" font-family="Arial" font-size="14">19.4 ms</text>
	<rect x="608.0" y="280" width="1268.0" height="40" fill="#f3f3f3" />
	<text x="651.0" y="304.0" fill="black" font-family="Arial" font-size="14">19.6 ms</text>
	<rect x="740.0" y="280" width="1268.0" height="40" fill="#f3f3f3" />
	<text x="783.0" y="304.0" fill="black" font-family="Arial" font-size="14">20.5 ms</text>
	<rect x="872.0" y="280" width="1268.0" height="40" fill="#f3f3f3" />
	<text x="915.0" y="304.0" fill="black" font-family="Arial" font-size="14">20.7 ms</text>
	<rect x="1004.0" y="280" width="1268.0" height="40" fill="#f3f3f3" />
	<text x="1047.0" y="304.0" fill="black" font-family="Arial" font-size="14">23.3 ms</text>
	<rect x="1136.0" y="280" width="1268.0" height="40" fill="#f3f3f3" />
	<text x="1179.0" y="304.0" fill="black" font-family="Arial" font-size="14">26.0 ms</text>
	<rect x="0" y="320" width="1268.0" height="40" fill="#fbbc04" />
	<text x="10" y="344.0" fill="black" font-family="Arial" font-size="14">Div / Rem  (`/`, `%`)</text>
	<rect x="344.0" y="320" width="1268.0" height="40" fill="#f3f3f3" />
	<text x="391.0" y="344.0" fill="black" font-family="Arial" font-size="14">291 ms</text>
	<rect x="476.0" y="320" width="1268.0" height="40" fill="#f3f3f3" />
	<text x="523.0" y="344.0" fill="black" font-family="Arial" font-size="14">693 ms</text>
	<rect x="608.0" y="320" width="1268.0" height="40" fill="#f3f3f3" />
	<text x="655.0" y="344.0" fill="black" font-family="Arial" font-size="14">1.56 s</text>
	<rect x="740.0" y="320" width="1268.0" height="40" fill="#f3f3f3" />
	<text x="787.0" y="344.0" fill="black" font-family="Arial" font-size="14">3.52 s</text>
	<rect x="872.0" y="320" width="1268.0" height="40" fill="#f3f3f3" />
	<text x="919.0" y="344.0" fill="black" font-family="Arial" font-size="14">8.22 s</text>
	<rect x="1004.0" y="320" width="1268.0" height="40" fill="#f3f3f3" />
	<text x="1051.0" y="344.0" fill="black" font-family="Arial" font-size="14">21.1 s</text>
	<rect x="1136.0" y="320" width="1268.0" height="40" fill="#f3f3f3" />
	<text x="1183.0" y="344.0" fill="black" font-family="Arial" font-size="14">55.2 s</text>
	<rect x="0" y="360" width="1268.0" height="40" fill="#fbbc04" />
	<text x="10" y="384.0" fill="black" font-family="Arial" font-size="14">Left / Right Shifts (`&#60;&#60;`, `&#62;&#62;`)</text>
	<rect x="344.0" y="360" width="1268.0" height="40" fill="#f3f3f3" />
	<text x="387.0" y="384.0" fill="black" font-family="Arial" font-size="14">38.5 ms</text>
	<rect x="476.0" y="360" width="1268.0" height="40" fill="#f3f3f3" />
	<text x="519.0" y="384.0" fill="black" font-family="Arial" font-size="14">61.2 ms</text>
	<rect x="608.0" y="360" width="1268.0" height="40" fill="#f3f3f3" />
	<text x="651.0" y="384.0" fill="black" font-family="Arial" font-size="14">84.3 ms</text>
	<rect x="740.0" y="360" width="1268.0" height="40" fill="#f3f3f3" />
	<text x="787.0" y="384.0" fill="black" font-family="Arial" font-size="14">109 ms</text>
	<rect x="872.0" y="360" width="1268.0" height="40" fill="#f3f3f3" />
	<text x="919.0" y="384.0" fill="black" font-family="Arial" font-size="14">134 ms</text>
	<rect x="1004.0" y="360" width="1268.0" height="40" fill="#f3f3f3" />
	<text x="1051.0" y="384.0" fill="black" font-family="Arial" font-size="14">174 ms</text>
	<rect x="1136.0" y="360" width="1268.0" height="40" fill="#f3f3f3" />
	<text x="1183.0" y="384.0" fill="black" font-family="Arial" font-size="14">250 ms</text>
	<rect x="0" y="400" width="1268.0" height="40" fill="#fbbc04" />
	<text x="10" y="424.0" fill="black" font-family="Arial" font-size="14">Left / Right Rotations (`left_rotate`, `right_rotate`)</text>
	<rect x="344.0" y="400" width="1268.0" height="40" fill="#f3f3f3" />
	<text x="387.0" y="424.0" fill="black" font-family="Arial" font-size="14">40.4 ms</text>
	<rect x="476.0" y="400" width="1268.0" height="40" fill="#f3f3f3" />
	<text x="519.0" y="424.0" fill="black" font-family="Arial" font-size="14">61.4 ms</text>
	<rect x="608.0" y="400" width="1268.0" height="40" fill="#f3f3f3" />
	<text x="651.0" y="424.0" fill="black" font-family="Arial" font-size="14">82.6 ms</text>
	<rect x="740.0" y="400" width="1268.0" height="40" fill="#f3f3f3" />
	<text x="787.0" y="424.0" fill="black" font-family="Arial" font-size="14">105 ms</text>
	<rect x="872.0" y="400" width="1268.0" height="40" fill="#f3f3f3" />
	<text x="919.0" y="424.0" fill="black" font-family="Arial" font-size="14">133 ms</text>
	<rect x="1004.0" y="400" width="1268.0" height="40" fill="#f3f3f3" />
	<text x="1051.0" y="424.0" fill="black" font-family="Arial" font-size="14">184 ms</text>
	<rect x="1136.0" y="400" width="1268.0" height="40" fill="#f3f3f3" />
	<text x="1183.0" y="424.0" fill="black" font-family="Arial" font-size="14">259 ms</text>
	<rect x="0" y="440" width="1268.0" height="40" fill="#fbbc04" />
	<text x="10" y="464.0" fill="black" font-family="Arial" font-size="14">Leading / Trailing zeros/ones</text>
	<rect x="344.0" y="440" width="1268.0" height="40" fill="#f3f3f3" />
	<text x="387.0" y="464.0" fill="black" font-family="Arial" font-size="14">80.5 ms</text>
	<rect x="476.0" y="440" width="1268.0" height="40" fill="#f3f3f3" />
	<text x="523.0" y="464.0" fill="black" font-family="Arial" font-size="14">100 ms</text>
	<rect x="608.0" y="440" width="1268.0" height="40" fill="#f3f3f3" />
	<text x="655.0" y="464.0" fill="black" font-family="Arial" font-size="14">156 ms</text>
	<rect x="740.0" y="440" width="1268.0" height="40" fill="#f3f3f3" />
	<text x="787.0" y="464.0" fill="black" font-family="Arial" font-size="14">183 ms</text>
	<rect x="872.0" y="440" width="1268.0" height="40" fill="#f3f3f3" />
	<text x="919.0" y="464.0" fill="black" font-family="Arial" font-size="14">247 ms</text>
	<rect x="1004.0" y="440" width="1268.0" height="40" fill="#f3f3f3" />
	<text x="1051.0" y="464.0" fill="black" font-family="Arial" font-size="14">298 ms</text>
	<rect x="1136.0" y="440" width="1268.0" height="40" fill="#f3f3f3" />
	<text x="1183.0" y="464.0" fill="black" font-family="Arial" font-size="14">347 ms</text>
	<rect x="0" y="480" width="1268.0" height="40" fill="#fbbc04" />
	<text x="10" y="504.0" fill="black" font-family="Arial" font-size="14">Log2</text>
	<rect x="344.0" y="480" width="1268.0" height="40" fill="#f3f3f3" />
	<text x="391.0" y="504.0" fill="black" font-family="Arial" font-size="14">100 ms</text>
	<rect x="476.0" y="480" width="1268.0" height="40" fill="#f3f3f3" />
	<text x="523.0" y="504.0" fill="black" font-family="Arial" font-size="14">121 ms</text>
	<rect x="608.0" y="480" width="1268.0" height="40" fill="#f3f3f3" />
	<text x="655.0" y="504.0" fill="black" font-family="Arial" font-size="14">182 ms</text>
	<rect x="740.0" y="480" width="1268.0" height="40" fill="#f3f3f3" />
	<text x="787.0" y="504.0" fill="black" font-family="Arial" font-size="14">205 ms</text>
	<rect x="872.0" y="480" width="1268.0" height="40" fill="#f3f3f3" />
	<text x="919.0" y="504.0" fill="black" font-family="Arial" font-size="14">267 ms</text>
	<rect x="1004.0" y="480" width="1268.0" height="40" fill="#f3f3f3" />
	<text x="1051.0" y="504.0" fill="black" font-family="Arial" font-size="14">323 ms</text>
	<rect x="1136.0" y="480" width="1268.0" height="40" fill="#f3f3f3" />
	<text x="1183.0" y="504.0" fill="black" font-family="Arial" font-size="14">369 ms</text>
	<rect x="0" y="520" width="1268.0" height="40" fill="#fbbc04" />
	<text x="10" y="544.0" fill="black" font-family="Arial" font-size="14">Select</text>
	<rect x="344.0" y="520" width="1268.0" height="40" fill="#f3f3f3" />
	<text x="387.0" y="544.0" fill="black" font-family="Arial" font-size="14">27.6 ms</text>
	<rect x="476.0" y="520" width="1268.0" height="40" fill="#f3f3f3" />
	<text x="519.0" y="544.0" fill="black" font-family="Arial" font-size="14">30.9 ms</text>
	<rect x="608.0" y="520" width="1268.0" height="40" fill="#f3f3f3" />
	<text x="651.0" y="544.0" fill="black" font-family="Arial" font-size="14">32.2 ms</text>
	<rect x="740.0" y="520" width="1268.0" height="40" fill="#f3f3f3" />
	<text x="783.0" y="544.0" fill="black" font-family="Arial" font-size="14">33.3 ms</text>
	<rect x="872.0" y="520" width="1268.0" height="40" fill="#f3f3f3" />
	<text x="915.0" y="544.0" fill="black" font-family="Arial" font-size="14">32.6 ms</text>
	<rect x="1004.0" y="520" width="1268.0" height="40" fill="#f3f3f3" />
	<text x="1047.0" y="544.0" fill="black" font-family="Arial" font-size="14">37.2 ms</text>
	<rect x="1136.0" y="520" width="1268.0" height="40" fill="#f3f3f3" />
	<text x="1179.0" y="544.0" fill="black" font-family="Arial" font-size="14">51.0 ms</text>

    <!-- Borders -->
    <line x1="0" y1="0" x2="0" y2="560" stroke="white" />
	<line x1="344.0" y1="0" x2="344.0" y2="560" stroke="white" />
	<line x1="476.0" y1="0" x2="476.0" y2="560" stroke="white" />
	<line x1="608.0" y1="0" x2="608.0" y2="560" stroke="white" />
	<line x1="740.0" y1="0" x2="740.0" y2="560" stroke="white" />
	<line x1="872.0" y1="0" x2="872.0" y2="560" stroke="white" />
	<line x1="1004.0" y1="0" x2="1004.0" y2="560" stroke="white" />
	<line x1="1136.0" y1="0" x2="1136.0" y2="560" stroke="white" />
	<line x1="0" y1="0" x2="1268.0" y2="0" stroke="white" />
	<line x1="0" y1="40" x2="1268.0" y2="40" stroke="white" />
	<line x1="0" y1="80" x2="1268.0" y2="80" stroke="white" />
	<line x1="0" y1="120" x2="1268.0" y2="120" stroke="white" />
	<line x1="0" y1="160" x2="1268.0" y2="160" stroke="white" />
	<line x1="0" y1="200" x2="1268.0" y2="200" stroke="white" />
	<line x1="0" y1="240" x2="1268.0" y2="240" stroke="white" />
	<line x1="0" y1="280" x2="1268.0" y2="280" stroke="white" />
	<line x1="0" y1="320" x2="1268.0" y2="320" stroke="white" />
	<line x1="0" y1="360" x2="1268.0" y2="360" stroke="white" />
	<line x1="0" y1="400" x2="1268.0" y2="400" stroke="white" />
	<line x1="0" y1="440" x2="1268.0" y2="440" stroke="white" />
	<line x1="0" y1="480" x2="1268.0" y2="480" stroke="white" />
	<line x1="0" y1="520" x2="1268.0" y2="520" stroke="white" />
	<line x1="0" y1="560" x2="1268.0" y2="560" stroke="white" />
</svg>
