<svg xmlns="http://www.w3.org/2000/svg" width="1392" height="440" viewBox="0 0 1392 440">
    <!-- Header Row -->
    <rect x="0" y="0" width="1392" height="40" fill="black" />
	<text x="10" y="24.0" fill="white" font-family="Arial" font-size="14">Operation \ Size</text>
	<text x="507.0" y="24.0" fill="white" font-family="Arial" font-size="14">FheUint4</text>
	<text x="639.0" y="24.0" fill="white" font-family="Arial" font-size="14">FheUint8</text>
	<text x="767.0" y="24.0" fill="white" font-family="Arial" font-size="14">FheUint16</text>
	<text x="899.0" y="24.0" fill="white" font-family="Arial" font-size="14">FheUint32</text>
	<text x="1031.0" y="24.0" fill="white" font-family="Arial" font-size="14">FheUint64</text>
	<text x="1159.0" y="24.0" fill="white" font-family="Arial" font-size="14">FheUint128</text>
	<text x="1291.0" y="24.0" fill="white" font-family="Arial" font-size="14">FheUint256</text>

    <!-- Data Rows -->
    <rect x="0" y="40" width="1392" height="40" fill="#fbbc04" />
	<text x="10" y="64.0" fill="black" font-family="Arial" font-size="14">Add / Sub (`+`,`-`)</text>
	<rect x="468" y="40" width="1392" height="40" fill="#f3f3f3" />
	<text x="511.0" y="64.0" fill="black" font-family="Arial" font-size="14">33.5 ms</text>
	<rect x="600" y="40" width="1392" height="40" fill="#f3f3f3" />
	<text x="643.0" y="64.0" fill="black" font-family="Arial" font-size="14">52.5 ms</text>
	<rect x="732" y="40" width="1392" height="40" fill="#f3f3f3" />
	<text x="775.0" y="64.0" fill="black" font-family="Arial" font-size="14">60.6 ms</text>
	<rect x="864" y="40" width="1392" height="40" fill="#f3f3f3" />
	<text x="907.0" y="64.0" fill="black" font-family="Arial" font-size="14">64.2 ms</text>
	<rect x="996" y="40" width="1392" height="40" fill="#f3f3f3" />
	<text x="1039.0" y="64.0" fill="black" font-family="Arial" font-size="14">89.3 ms</text>
	<rect x="1128" y="40" width="1392" height="40" fill="#f3f3f3" />
	<text x="1175.0" y="64.0" fill="black" font-family="Arial" font-size="14">111 ms</text>
	<rect x="1260" y="40" width="1392" height="40" fill="#f3f3f3" />
	<text x="1307.0" y="64.0" fill="black" font-family="Arial" font-size="14">181 ms</text>
	<rect x="0" y="80" width="1392" height="40" fill="#fbbc04" />
	<text x="10" y="104.0" fill="black" font-family="Arial" font-size="14">Mul (`x`)</text>
	<rect x="468" y="80" width="1392" height="40" fill="#f3f3f3" />
	<text x="511.0" y="104.0" fill="black" font-family="Arial" font-size="14">36.2 ms</text>
	<rect x="600" y="80" width="1392" height="40" fill="#f3f3f3" />
	<text x="643.0" y="104.0" fill="black" font-family="Arial" font-size="14">74.8 ms</text>
	<rect x="732" y="80" width="1392" height="40" fill="#f3f3f3" />
	<text x="779.0" y="104.0" fill="black" font-family="Arial" font-size="14">125 ms</text>
	<rect x="864" y="80" width="1392" height="40" fill="#f3f3f3" />
	<text x="911.0" y="104.0" fill="black" font-family="Arial" font-size="14">175 ms</text>
	<rect x="996" y="80" width="1392" height="40" fill="#f3f3f3" />
	<text x="1043.0" y="104.0" fill="black" font-family="Arial" font-size="14">242 ms</text>
	<rect x="1128" y="80" width="1392" height="40" fill="#f3f3f3" />
	<text x="1175.0" y="104.0" fill="black" font-family="Arial" font-size="14">453 ms</text>
	<rect x="1260" y="80" width="1392" height="40" fill="#f3f3f3" />
	<text x="1307.0" y="104.0" fill="black" font-family="Arial" font-size="14">1.11 s</text>
	<rect x="0" y="120" width="1392" height="40" fill="#fbbc04" />
	<text x="10" y="144.0" fill="black" font-family="Arial" font-size="14">Equal / Not Equal (`eq`, `ne`)</text>
	<rect x="468" y="120" width="1392" height="40" fill="#f3f3f3" />
	<text x="511.0" y="144.0" fill="black" font-family="Arial" font-size="14">18.8 ms</text>
	<rect x="600" y="120" width="1392" height="40" fill="#f3f3f3" />
	<text x="643.0" y="144.0" fill="black" font-family="Arial" font-size="14">32.2 ms</text>
	<rect x="732" y="120" width="1392" height="40" fill="#f3f3f3" />
	<text x="775.0" y="144.0" fill="black" font-family="Arial" font-size="14">35.2 ms</text>
	<rect x="864" y="120" width="1392" height="40" fill="#f3f3f3" />
	<text x="907.0" y="144.0" fill="black" font-family="Arial" font-size="14">55.2 ms</text>
	<rect x="996" y="120" width="1392" height="40" fill="#f3f3f3" />
	<text x="1039.0" y="144.0" fill="black" font-family="Arial" font-size="14">58.2 ms</text>
	<rect x="1128" y="120" width="1392" height="40" fill="#f3f3f3" />
	<text x="1171.0" y="144.0" fill="black" font-family="Arial" font-size="14">79.0 ms</text>
	<rect x="1260" y="120" width="1392" height="40" fill="#f3f3f3" />
	<text x="1303.0" y="144.0" fill="black" font-family="Arial" font-size="14">81.2 ms</text>
	<rect x="0" y="160" width="1392" height="40" fill="#fbbc04" />
	<text x="10" y="184.0" fill="black" font-family="Arial" font-size="14">Comparisons  (`ge`, `gt`, `le`, `lt`)</text>
	<rect x="468" y="160" width="1392" height="40" fill="#f3f3f3" />
	<text x="511.0" y="184.0" fill="black" font-family="Arial" font-size="14">15.1 ms</text>
	<rect x="600" y="160" width="1392" height="40" fill="#f3f3f3" />
	<text x="643.0" y="184.0" fill="black" font-family="Arial" font-size="14">37.2 ms</text>
	<rect x="732" y="160" width="1392" height="40" fill="#f3f3f3" />
	<text x="775.0" y="184.0" fill="black" font-family="Arial" font-size="14">36.6 ms</text>
	<rect x="864" y="160" width="1392" height="40" fill="#f3f3f3" />
	<text x="907.0" y="184.0" fill="black" font-family="Arial" font-size="14">56.0 ms</text>
	<rect x="996" y="160" width="1392" height="40" fill="#f3f3f3" />
	<text x="1039.0" y="184.0" fill="black" font-family="Arial" font-size="14">78.9 ms</text>
	<rect x="1128" y="160" width="1392" height="40" fill="#f3f3f3" />
	<text x="1175.0" y="184.0" fill="black" font-family="Arial" font-size="14">101 ms</text>
	<rect x="1260" y="160" width="1392" height="40" fill="#f3f3f3" />
	<text x="1307.0" y="184.0" fill="black" font-family="Arial" font-size="14">145 ms</text>
	<rect x="0" y="200" width="1392" height="40" fill="#fbbc04" />
	<text x="10" y="224.0" fill="black" font-family="Arial" font-size="14">Max / Min   (`max`,`min`)</text>
	<rect x="468" y="200" width="1392" height="40" fill="#f3f3f3" />
	<text x="511.0" y="224.0" fill="black" font-family="Arial" font-size="14">32.9 ms</text>
	<rect x="600" y="200" width="1392" height="40" fill="#f3f3f3" />
	<text x="643.0" y="224.0" fill="black" font-family="Arial" font-size="14">52.6 ms</text>
	<rect x="732" y="200" width="1392" height="40" fill="#f3f3f3" />
	<text x="775.0" y="224.0" fill="black" font-family="Arial" font-size="14">57.0 ms</text>
	<rect x="864" y="200" width="1392" height="40" fill="#f3f3f3" />
	<text x="907.0" y="224.0" fill="black" font-family="Arial" font-size="14">78.1 ms</text>
	<rect x="996" y="200" width="1392" height="40" fill="#f3f3f3" />
	<text x="1043.0" y="224.0" fill="black" font-family="Arial" font-size="14">103 ms</text>
	<rect x="1128" y="200" width="1392" height="40" fill="#f3f3f3" />
	<text x="1175.0" y="224.0" fill="black" font-family="Arial" font-size="14">123 ms</text>
	<rect x="1260" y="200" width="1392" height="40" fill="#f3f3f3" />
	<text x="1307.0" y="224.0" fill="black" font-family="Arial" font-size="14">171 ms</text>
	<rect x="0" y="240" width="1392" height="40" fill="#fbbc04" />
	<text x="10" y="264.0" fill="black" font-family="Arial" font-size="14">Bitwise operations (`&#38;`, `&#124;`, `^`)</text>
	<rect x="468" y="240" width="1392" height="40" fill="#f3f3f3" />
	<text x="511.0" y="264.0" fill="black" font-family="Arial" font-size="14">18.0 ms</text>
	<rect x="600" y="240" width="1392" height="40" fill="#f3f3f3" />
	<text x="643.0" y="264.0" fill="black" font-family="Arial" font-size="14">18.9 ms</text>
	<rect x="732" y="240" width="1392" height="40" fill="#f3f3f3" />
	<text x="775.0" y="264.0" fill="black" font-family="Arial" font-size="14">19.6 ms</text>
	<rect x="864" y="240" width="1392" height="40" fill="#f3f3f3" />
	<text x="907.0" y="264.0" fill="black" font-family="Arial" font-size="14">21.4 ms</text>
	<rect x="996" y="240" width="1392" height="40" fill="#f3f3f3" />
	<text x="1039.0" y="264.0" fill="black" font-family="Arial" font-size="14">23.1 ms</text>
	<rect x="1128" y="240" width="1392" height="40" fill="#f3f3f3" />
	<text x="1171.0" y="264.0" fill="black" font-family="Arial" font-size="14">24.1 ms</text>
	<rect x="1260" y="240" width="1392" height="40" fill="#f3f3f3" />
	<text x="1303.0" y="264.0" fill="black" font-family="Arial" font-size="14">26.7 ms</text>
	<rect x="0" y="280" width="1392" height="40" fill="#fbbc04" />
	<text x="10" y="304.0" fill="black" font-family="Arial" font-size="14">Div  (`/`)</text>
	<rect x="468" y="280" width="1392" height="40" fill="#f3f3f3" />
	<text x="511.0" y="304.0" fill="black" font-family="Arial" font-size="14">81.1 ms</text>
	<rect x="600" y="280" width="1392" height="40" fill="#f3f3f3" />
	<text x="647.0" y="304.0" fill="black" font-family="Arial" font-size="14">139 ms</text>
	<rect x="732" y="280" width="1392" height="40" fill="#f3f3f3" />
	<text x="779.0" y="304.0" fill="black" font-family="Arial" font-size="14">202 ms</text>
	<rect x="864" y="280" width="1392" height="40" fill="#f3f3f3" />
	<text x="911.0" y="304.0" fill="black" font-family="Arial" font-size="14">280 ms</text>
	<rect x="996" y="280" width="1392" height="40" fill="#f3f3f3" />
	<text x="1043.0" y="304.0" fill="black" font-family="Arial" font-size="14">456 ms</text>
	<rect x="1128" y="280" width="1392" height="40" fill="#f3f3f3" />
	<text x="1175.0" y="304.0" fill="black" font-family="Arial" font-size="14">912 ms</text>
	<rect x="1260" y="280" width="1392" height="40" fill="#f3f3f3" />
	<text x="1307.0" y="304.0" fill="black" font-family="Arial" font-size="14">2.33 s</text>
	<rect x="0" y="320" width="1392" height="40" fill="#fbbc04" />
	<text x="10" y="344.0" fill="black" font-family="Arial" font-size="14">Rem  (`%`)</text>
	<rect x="468" y="320" width="1392" height="40" fill="#f3f3f3" />
	<text x="515.0" y="344.0" fill="black" font-family="Arial" font-size="14">154 ms</text>
	<rect x="600" y="320" width="1392" height="40" fill="#f3f3f3" />
	<text x="647.0" y="344.0" fill="black" font-family="Arial" font-size="14">275 ms</text>
	<rect x="732" y="320" width="1392" height="40" fill="#f3f3f3" />
	<text x="779.0" y="344.0" fill="black" font-family="Arial" font-size="14">366 ms</text>
	<rect x="864" y="320" width="1392" height="40" fill="#f3f3f3" />
	<text x="911.0" y="344.0" fill="black" font-family="Arial" font-size="14">536 ms</text>
	<rect x="996" y="320" width="1392" height="40" fill="#f3f3f3" />
	<text x="1043.0" y="344.0" fill="black" font-family="Arial" font-size="14">778 ms</text>
	<rect x="1128" y="320" width="1392" height="40" fill="#f3f3f3" />
	<text x="1175.0" y="344.0" fill="black" font-family="Arial" font-size="14">1.37 s</text>
	<rect x="1260" y="320" width="1392" height="40" fill="#f3f3f3" />
	<text x="1307.0" y="344.0" fill="black" font-family="Arial" font-size="14">3.13 s</text>
	<rect x="0" y="360" width="1392" height="40" fill="#fbbc04" />
	<text x="10" y="384.0" fill="black" font-family="Arial" font-size="14">Left / Right Shifts (`&#60;&#60;`, `&#62;&#62;`)</text>
	<rect x="468" y="360" width="1392" height="40" fill="#f3f3f3" />
	<text x="511.0" y="384.0" fill="black" font-family="Arial" font-size="14">22.3 ms</text>
	<rect x="600" y="360" width="1392" height="40" fill="#f3f3f3" />
	<text x="643.0" y="384.0" fill="black" font-family="Arial" font-size="14">20.0 ms</text>
	<rect x="732" y="360" width="1392" height="40" fill="#f3f3f3" />
	<text x="775.0" y="384.0" fill="black" font-family="Arial" font-size="14">20.3 ms</text>
	<rect x="864" y="360" width="1392" height="40" fill="#f3f3f3" />
	<text x="907.0" y="384.0" fill="black" font-family="Arial" font-size="14">21.2 ms</text>
	<rect x="996" y="360" width="1392" height="40" fill="#f3f3f3" />
	<text x="1039.0" y="384.0" fill="black" font-family="Arial" font-size="14">23.2 ms</text>
	<rect x="1128" y="360" width="1392" height="40" fill="#f3f3f3" />
	<text x="1171.0" y="384.0" fill="black" font-family="Arial" font-size="14">24.2 ms</text>
	<rect x="1260" y="360" width="1392" height="40" fill="#f3f3f3" />
	<text x="1303.0" y="384.0" fill="black" font-family="Arial" font-size="14">26.5 ms</text>
	<rect x="0" y="400" width="1392" height="40" fill="#fbbc04" />
	<text x="10" y="424.0" fill="black" font-family="Arial" font-size="14">Left / Right Rotations (`left_rotate`, `right_rotate`)</text>
	<rect x="468" y="400" width="1392" height="40" fill="#f3f3f3" />
	<text x="511.0" y="424.0" fill="black" font-family="Arial" font-size="14">20.2 ms</text>
	<rect x="600" y="400" width="1392" height="40" fill="#f3f3f3" />
	<text x="643.0" y="424.0" fill="black" font-family="Arial" font-size="14">19.5 ms</text>
	<rect x="732" y="400" width="1392" height="40" fill="#f3f3f3" />
	<text x="775.0" y="424.0" fill="black" font-family="Arial" font-size="14">20.6 ms</text>
	<rect x="864" y="400" width="1392" height="40" fill="#f3f3f3" />
	<text x="907.0" y="424.0" fill="black" font-family="Arial" font-size="14">21.1 ms</text>
	<rect x="996" y="400" width="1392" height="40" fill="#f3f3f3" />
	<text x="1039.0" y="424.0" fill="black" font-family="Arial" font-size="14">23.6 ms</text>
	<rect x="1128" y="400" width="1392" height="40" fill="#f3f3f3" />
	<text x="1171.0" y="424.0" fill="black" font-family="Arial" font-size="14">24.1 ms</text>
	<rect x="1260" y="400" width="1392" height="40" fill="#f3f3f3" />
	<text x="1303.0" y="424.0" fill="black" font-family="Arial" font-size="14">26.2 ms</text>

    <!-- Borders -->
    <line x1="0" y1="0" x2="0" y2="440" stroke="white" />
	<line x1="468" y1="0" x2="468" y2="440" stroke="white" />
	<line x1="600" y1="0" x2="600" y2="440" stroke="white" />
	<line x1="732" y1="0" x2="732" y2="440" stroke="white" />
	<line x1="864" y1="0" x2="864" y2="440" stroke="white" />
	<line x1="996" y1="0" x2="996" y2="440" stroke="white" />
	<line x1="1128" y1="0" x2="1128" y2="440" stroke="white" />
	<line x1="1260" y1="0" x2="1260" y2="440" stroke="white" />
	<line x1="0" y1="0" x2="1392" y2="0" stroke="white" />
	<line x1="0" y1="40" x2="1392" y2="40" stroke="white" />
	<line x1="0" y1="80" x2="1392" y2="80" stroke="white" />
	<line x1="0" y1="120" x2="1392" y2="120" stroke="white" />
	<line x1="0" y1="160" x2="1392" y2="160" stroke="white" />
	<line x1="0" y1="200" x2="1392" y2="200" stroke="white" />
	<line x1="0" y1="240" x2="1392" y2="240" stroke="white" />
	<line x1="0" y1="280" x2="1392" y2="280" stroke="white" />
	<line x1="0" y1="320" x2="1392" y2="320" stroke="white" />
	<line x1="0" y1="360" x2="1392" y2="360" stroke="white" />
	<line x1="0" y1="400" x2="1392" y2="400" stroke="white" />
	<line x1="0" y1="440" x2="1392" y2="440" stroke="white" />
</svg>
