<svg xmlns="http://www.w3.org/2000/svg" width="1268.0" height="440" viewBox="0 0 1268.0 440">
    <!-- Header Row -->
    <rect x="0" y="0" width="1268.0" height="40" fill="black" />
	<text x="10" y="24.0" fill="white" font-family="Arial" font-size="14">Operation \ Size</text>
	<text x="383.0" y="24.0" fill="white" font-family="Arial" font-size="14">FheUint4</text>
	<text x="515.0" y="24.0" fill="white" font-family="Arial" font-size="14">FheUint8</text>
	<text x="643.0" y="24.0" fill="white" font-family="Arial" font-size="14">FheUint16</text>
	<text x="775.0" y="24.0" fill="white" font-family="Arial" font-size="14">FheUint32</text>
	<text x="907.0" y="24.0" fill="white" font-family="Arial" font-size="14">FheUint64</text>
	<text x="1035.0" y="24.0" fill="white" font-family="Arial" font-size="14">FheUint128</text>
	<text x="1167.0" y="24.0" fill="white" font-family="Arial" font-size="14">FheUint256</text>

    <!-- Data Rows -->
    <rect x="0" y="40" width="1268.0" height="40" fill="#fbbc04" />
	<text x="10" y="64.0" fill="black" font-family="Arial" font-size="14">Add / Sub (`+`,`-`)</text>
	<rect x="344.0" y="40" width="1268.0" height="40" fill="#f3f3f3" />
	<text x="387.0" y="64.0" fill="black" font-family="Arial" font-size="14">33.5 ms</text>
	<rect x="476.0" y="40" width="1268.0" height="40" fill="#f3f3f3" />
	<text x="519.0" y="64.0" fill="black" font-family="Arial" font-size="14">52.5 ms</text>
	<rect x="608.0" y="40" width="1268.0" height="40" fill="#f3f3f3" />
	<text x="651.0" y="64.0" fill="black" font-family="Arial" font-size="14">60.6 ms</text>
	<rect x="740.0" y="40" width="1268.0" height="40" fill="#f3f3f3" />
	<text x="783.0" y="64.0" fill="black" font-family="Arial" font-size="14">64.2 ms</text>
	<rect x="872.0" y="40" width="1268.0" height="40" fill="#f3f3f3" />
	<text x="915.0" y="64.0" fill="black" font-family="Arial" font-size="14">89.3 ms</text>
	<rect x="1004.0" y="40" width="1268.0" height="40" fill="#f3f3f3" />
	<text x="1051.0" y="64.0" fill="black" font-family="Arial" font-size="14">111 ms</text>
	<rect x="1136.0" y="40" width="1268.0" height="40" fill="#f3f3f3" />
	<text x="1183.0" y="64.0" fill="black" font-family="Arial" font-size="14">181 ms</text>
	<rect x="0" y="80" width="1268.0" height="40" fill="#fbbc04" />
	<text x="10" y="104.0" fill="black" font-family="Arial" font-size="14">Mul (`x`)</text>
	<rect x="344.0" y="80" width="1268.0" height="40" fill="#f3f3f3" />
	<text x="387.0" y="104.0" fill="black" font-family="Arial" font-size="14">36.2 ms</text>
	<rect x="476.0" y="80" width="1268.0" height="40" fill="#f3f3f3" />
	<text x="519.0" y="104.0" fill="black" font-family="Arial" font-size="14">74.8 ms</text>
	<rect x="608.0" y="80" width="1268.0" height="40" fill="#f3f3f3" />
	<text x="655.0" y="104.0" fill="black" font-family="Arial" font-size="14">125 ms</text>
	<rect x="740.0" y="80" width="1268.0" height="40" fill="#f3f3f3" />
	<text x="787.0" y="104.0" fill="black" font-family="Arial" font-size="14">175 ms</text>
	<rect x="872.0" y="80" width="1268.0" height="40" fill="#f3f3f3" />
	<text x="919.0" y="104.0" fill="black" font-family="Arial" font-size="14">242 ms</text>
	<rect x="1004.0" y="80" width="1268.0" height="40" fill="#f3f3f3" />
	<text x="1051.0" y="104.0" fill="black" font-family="Arial" font-size="14">453 ms</text>
	<rect x="1136.0" y="80" width="1268.0" height="40" fill="#f3f3f3" />
	<text x="1183.0" y="104.0" fill="black" font-family="Arial" font-size="14">1.11 s</text>
	<rect x="0" y="120" width="1268.0" height="40" fill="#fbbc04" />
	<text x="10" y="144.0" fill="black" font-family="Arial" font-size="14">Equal / Not Equal (`eq`, `ne`)</text>
	<rect x="344.0" y="120" width="1268.0" height="40" fill="#f3f3f3" />
	<text x="387.0" y="144.0" fill="black" font-family="Arial" font-size="14">18.8 ms</text>
	<rect x="476.0" y="120" width="1268.0" height="40" fill="#f3f3f3" />
	<text x="519.0" y="144.0" fill="black" font-family="Arial" font-size="14">32.2 ms</text>
	<rect x="608.0" y="120" width="1268.0" height="40" fill="#f3f3f3" />
	<text x="651.0" y="144.0" fill="black" font-family="Arial" font-size="14">35.2 ms</text>
	<rect x="740.0" y="120" width="1268.0" height="40" fill="#f3f3f3" />
	<text x="783.0" y="144.0" fill="black" font-family="Arial" font-size="14">55.2 ms</text>
	<rect x="872.0" y="120" width="1268.0" height="40" fill="#f3f3f3" />
	<text x="915.0" y="144.0" fill="black" font-family="Arial" font-size="14">58.2 ms</text>
	<rect x="1004.0" y="120" width="1268.0" height="40" fill="#f3f3f3" />
	<text x="1047.0" y="144.0" fill="black" font-family="Arial" font-size="14">79.0 ms</text>
	<rect x="1136.0" y="120" width="1268.0" height="40" fill="#f3f3f3" />
	<text x="1179.0" y="144.0" fill="black" font-family="Arial" font-size="14">81.2 ms</text>
	<rect x="0" y="160" width="1268.0" height="40" fill="#fbbc04" />
	<text x="10" y="184.0" fill="black" font-family="Arial" font-size="14">Comparisons  (`ge`, `gt`, `le`, `lt`)</text>
	<rect x="344.0" y="160" width="1268.0" height="40" fill="#f3f3f3" />
	<text x="387.0" y="184.0" fill="black" font-family="Arial" font-size="14">15.1 ms</text>
	<rect x="476.0" y="160" width="1268.0" height="40" fill="#f3f3f3" />
	<text x="519.0" y="184.0" fill="black" font-family="Arial" font-size="14">37.2 ms</text>
	<rect x="608.0" y="160" width="1268.0" height="40" fill="#f3f3f3" />
	<text x="651.0" y="184.0" fill="black" font-family="Arial" font-size="14">36.6 ms</text>
	<rect x="740.0" y="160" width="1268.0" height="40" fill="#f3f3f3" />
	<text x="783.0" y="184.0" fill="black" font-family="Arial" font-size="14">56.0 ms</text>
	<rect x="872.0" y="160" width="1268.0" height="40" fill="#f3f3f3" />
	<text x="915.0" y="184.0" fill="black" font-family="Arial" font-size="14">78.9 ms</text>
	<rect x="1004.0" y="160" width="1268.0" height="40" fill="#f3f3f3" />
	<text x="1051.0" y="184.0" fill="black" font-family="Arial" font-size="14">101 ms</text>
	<rect x="1136.0" y="160" width="1268.0" height="40" fill="#f3f3f3" />
	<text x="1183.0" y="184.0" fill="black" font-family="Arial" font-size="14">145 ms</text>
	<rect x="0" y="200" width="1268.0" height="40" fill="#fbbc04" />
	<text x="10" y="224.0" fill="black" font-family="Arial" font-size="14">Max / Min   (`max`,`min`)</text>
	<rect x="344.0" y="200" width="1268.0" height="40" fill="#f3f3f3" />
	<text x="387.0" y="224.0" fill="black" font-family="Arial" font-size="14">32.9 ms</text>
	<rect x="476.0" y="200" width="1268.0" height="40" fill="#f3f3f3" />
	<text x="519.0" y="224.0" fill="black" font-family="Arial" font-size="14">52.6 ms</text>
	<rect x="608.0" y="200" width="1268.0" height="40" fill="#f3f3f3" />
	<text x="651.0" y="224.0" fill="black" font-family="Arial" font-size="14">57.0 ms</text>
	<rect x="740.0" y="200" width="1268.0" height="40" fill="#f3f3f3" />
	<text x="783.0" y="224.0" fill="black" font-family="Arial" font-size="14">78.1 ms</text>
	<rect x="872.0" y="200" width="1268.0" height="40" fill="#f3f3f3" />
	<text x="919.0" y="224.0" fill="black" font-family="Arial" font-size="14">103 ms</text>
	<rect x="1004.0" y="200" width="1268.0" height="40" fill="#f3f3f3" />
	<text x="1051.0" y="224.0" fill="black" font-family="Arial" font-size="14">123 ms</text>
	<rect x="1136.0" y="200" width="1268.0" height="40" fill="#f3f3f3" />
	<text x="1183.0" y="224.0" fill="black" font-family="Arial" font-size="14">171 ms</text>
	<rect x="0" y="240" width="1268.0" height="40" fill="#fbbc04" />
	<text x="10" y="264.0" fill="black" font-family="Arial" font-size="14">Bitwise operations (`&#38;`, `&#124;`, `^`)</text>
	<rect x="344.0" y="240" width="1268.0" height="40" fill="#f3f3f3" />
	<text x="387.0" y="264.0" fill="black" font-family="Arial" font-size="14">18.0 ms</text>
	<rect x="476.0" y="240" width="1268.0" height="40" fill="#f3f3f3" />
	<text x="519.0" y="264.0" fill="black" font-family="Arial" font-size="14">18.9 ms</text>
	<rect x="608.0" y="240" width="1268.0" height="40" fill="#f3f3f3" />
	<text x="651.0" y="264.0" fill="black" font-family="Arial" font-size="14">19.6 ms</text>
	<rect x="740.0" y="240" width="1268.0" height="40" fill="#f3f3f3" />
	<text x="783.0" y="264.0" fill="black" font-family="Arial" font-size="14">21.4 ms</text>
	<rect x="872.0" y="240" width="1268.0" height="40" fill="#f3f3f3" />
	<text x="915.0" y="264.0" fill="black" font-family="Arial" font-size="14">23.1 ms</text>
	<rect x="1004.0" y="240" width="1268.0" height="40" fill="#f3f3f3" />
	<text x="1047.0" y="264.0" fill="black" font-family="Arial" font-size="14">24.1 ms</text>
	<rect x="1136.0" y="240" width="1268.0" height="40" fill="#f3f3f3" />
	<text x="1179.0" y="264.0" fill="black" font-family="Arial" font-size="14">26.7 ms</text>
	<rect x="0" y="280" width="1268.0" height="40" fill="#fbbc04" />
	<text x="10" y="304.0" fill="black" font-family="Arial" font-size="14">Div  (`/`)</text>
	<rect x="344.0" y="280" width="1268.0" height="40" fill="#f3f3f3" />
	<text x="387.0" y="304.0" fill="black" font-family="Arial" font-size="14">81.1 ms</text>
	<rect x="476.0" y="280" width="1268.0" height="40" fill="#f3f3f3" />
	<text x="523.0" y="304.0" fill="black" font-family="Arial" font-size="14">139 ms</text>
	<rect x="608.0" y="280" width="1268.0" height="40" fill="#f3f3f3" />
	<text x="655.0" y="304.0" fill="black" font-family="Arial" font-size="14">202 ms</text>
	<rect x="740.0" y="280" width="1268.0" height="40" fill="#f3f3f3" />
	<text x="787.0" y="304.0" fill="black" font-family="Arial" font-size="14">280 ms</text>
	<rect x="872.0" y="280" width="1268.0" height="40" fill="#f3f3f3" />
	<text x="919.0" y="304.0" fill="black" font-family="Arial" font-size="14">456 ms</text>
	<rect x="1004.0" y="280" width="1268.0" height="40" fill="#f3f3f3" />
	<text x="1051.0" y="304.0" fill="black" font-family="Arial" font-size="14">912 ms</text>
	<rect x="1136.0" y="280" width="1268.0" height="40" fill="#f3f3f3" />
	<text x="1183.0" y="304.0" fill="black" font-family="Arial" font-size="14">2.33 s</text>
	<rect x="0" y="320" width="1268.0" height="40" fill="#fbbc04" />
	<text x="10" y="344.0" fill="black" font-family="Arial" font-size="14">Rem  (`%`)</text>
	<rect x="344.0" y="320" width="1268.0" height="40" fill="#f3f3f3" />
	<text x="391.0" y="344.0" fill="black" font-family="Arial" font-size="14">154 ms</text>
	<rect x="476.0" y="320" width="1268.0" height="40" fill="#f3f3f3" />
	<text x="523.0" y="344.0" fill="black" font-family="Arial" font-size="14">275 ms</text>
	<rect x="608.0" y="320" width="1268.0" height="40" fill="#f3f3f3" />
	<text x="655.0" y="344.0" fill="black" font-family="Arial" font-size="14">366 ms</text>
	<rect x="740.0" y="320" width="1268.0" height="40" fill="#f3f3f3" />
	<text x="787.0" y="344.0" fill="black" font-family="Arial" font-size="14">536 ms</text>
	<rect x="872.0" y="320" width="1268.0" height="40" fill="#f3f3f3" />
	<text x="919.0" y="344.0" fill="black" font-family="Arial" font-size="14">778 ms</text>
	<rect x="1004.0" y="320" width="1268.0" height="40" fill="#f3f3f3" />
	<text x="1051.0" y="344.0" fill="black" font-family="Arial" font-size="14">1.37 s</text>
	<rect x="1136.0" y="320" width="1268.0" height="40" fill="#f3f3f3" />
	<text x="1183.0" y="344.0" fill="black" font-family="Arial" font-size="14">3.13 s</text>
	<rect x="0" y="360" width="1268.0" height="40" fill="#fbbc04" />
	<text x="10" y="384.0" fill="black" font-family="Arial" font-size="14">Left / Right Shifts (`&#60;&#60;`, `&#62;&#62;`)</text>
	<rect x="344.0" y="360" width="1268.0" height="40" fill="#f3f3f3" />
	<text x="387.0" y="384.0" fill="black" font-family="Arial" font-size="14">22.3 ms</text>
	<rect x="476.0" y="360" width="1268.0" height="40" fill="#f3f3f3" />
	<text x="519.0" y="384.0" fill="black" font-family="Arial" font-size="14">20.0 ms</text>
	<rect x="608.0" y="360" width="1268.0" height="40" fill="#f3f3f3" />
	<text x="651.0" y="384.0" fill="black" font-family="Arial" font-size="14">20.3 ms</text>
	<rect x="740.0" y="360" width="1268.0" height="40" fill="#f3f3f3" />
	<text x="783.0" y="384.0" fill="black" font-family="Arial" font-size="14">21.2 ms</text>
	<rect x="872.0" y="360" width="1268.0" height="40" fill="#f3f3f3" />
	<text x="915.0" y="384.0" fill="black" font-family="Arial" font-size="14">23.2 ms</text>
	<rect x="1004.0" y="360" width="1268.0" height="40" fill="#f3f3f3" />
	<text x="1047.0" y="384.0" fill="black" font-family="Arial" font-size="14">24.2 ms</text>
	<rect x="1136.0" y="360" width="1268.0" height="40" fill="#f3f3f3" />
	<text x="1179.0" y="384.0" fill="black" font-family="Arial" font-size="14">26.5 ms</text>
	<rect x="0" y="400" width="1268.0" height="40" fill="#fbbc04" />
	<text x="10" y="424.0" fill="black" font-family="Arial" font-size="14">Left / Right Rotations (`left_rotate`, `right_rotate`)</text>
	<rect x="344.0" y="400" width="1268.0" height="40" fill="#f3f3f3" />
	<text x="387.0" y="424.0" fill="black" font-family="Arial" font-size="14">20.2 ms</text>
	<rect x="476.0" y="400" width="1268.0" height="40" fill="#f3f3f3" />
	<text x="519.0" y="424.0" fill="black" font-family="Arial" font-size="14">19.5 ms</text>
	<rect x="608.0" y="400" width="1268.0" height="40" fill="#f3f3f3" />
	<text x="651.0" y="424.0" fill="black" font-family="Arial" font-size="14">20.6 ms</text>
	<rect x="740.0" y="400" width="1268.0" height="40" fill="#f3f3f3" />
	<text x="783.0" y="424.0" fill="black" font-family="Arial" font-size="14">21.1 ms</text>
	<rect x="872.0" y="400" width="1268.0" height="40" fill="#f3f3f3" />
	<text x="915.0" y="424.0" fill="black" font-family="Arial" font-size="14">23.6 ms</text>
	<rect x="1004.0" y="400" width="1268.0" height="40" fill="#f3f3f3" />
	<text x="1047.0" y="424.0" fill="black" font-family="Arial" font-size="14">24.1 ms</text>
	<rect x="1136.0" y="400" width="1268.0" height="40" fill="#f3f3f3" />
	<text x="1179.0" y="424.0" fill="black" font-family="Arial" font-size="14">26.2 ms</text>

    <!-- Borders -->
    <line x1="0" y1="0" x2="0" y2="440" stroke="white" />
	<line x1="344.0" y1="0" x2="344.0" y2="440" stroke="white" />
	<line x1="476.0" y1="0" x2="476.0" y2="440" stroke="white" />
	<line x1="608.0" y1="0" x2="608.0" y2="440" stroke="white" />
	<line x1="740.0" y1="0" x2="740.0" y2="440" stroke="white" />
	<line x1="872.0" y1="0" x2="872.0" y2="440" stroke="white" />
	<line x1="1004.0" y1="0" x2="1004.0" y2="440" stroke="white" />
	<line x1="1136.0" y1="0" x2="1136.0" y2="440" stroke="white" />
	<line x1="0" y1="0" x2="1268.0" y2="0" stroke="white" />
	<line x1="0" y1="40" x2="1268.0" y2="40" stroke="white" />
	<line x1="0" y1="80" x2="1268.0" y2="80" stroke="white" />
	<line x1="0" y1="120" x2="1268.0" y2="120" stroke="white" />
	<line x1="0" y1="160" x2="1268.0" y2="160" stroke="white" />
	<line x1="0" y1="200" x2="1268.0" y2="200" stroke="white" />
	<line x1="0" y1="240" x2="1268.0" y2="240" stroke="white" />
	<line x1="0" y1="280" x2="1268.0" y2="280" stroke="white" />
	<line x1="0" y1="320" x2="1268.0" y2="320" stroke="white" />
	<line x1="0" y1="360" x2="1268.0" y2="360" stroke="white" />
	<line x1="0" y1="400" x2="1268.0" y2="400" stroke="white" />
	<line x1="0" y1="440" x2="1268.0" y2="440" stroke="white" />
</svg>
