<svg xmlns="http://www.w3.org/2000/svg" width="1392" height="520" viewBox="0 0 1392 520">
    <!-- Header Row -->
    <rect x="0" y="0" width="1392" height="40" fill="black" />
	<text x="10" y="24.0" fill="white" font-family="Arial" font-size="14">Operation \ Size</text>
	<text x="507.0" y="24.0" fill="white" font-family="Arial" font-size="14">FheUint4</text>
	<text x="639.0" y="24.0" fill="white" font-family="Arial" font-size="14">FheUint8</text>
	<text x="767.0" y="24.0" fill="white" font-family="Arial" font-size="14">FheUint16</text>
	<text x="899.0" y="24.0" fill="white" font-family="Arial" font-size="14">FheUint32</text>
	<text x="1031.0" y="24.0" fill="white" font-family="Arial" font-size="14">FheUint64</text>
	<text x="1159.0" y="24.0" fill="white" font-family="Arial" font-size="14">FheUint128</text>
	<text x="1291.0" y="24.0" fill="white" font-family="Arial" font-size="14">FheUint256</text>

    <!-- Data Rows -->
    <rect x="0" y="40" width="1392" height="40" fill="#fbbc04" />
	<text x="10" y="64.0" fill="black" font-family="Arial" font-size="14">Negation (`-`)</text>
	<rect x="468" y="40" width="1392" height="40" fill="#f3f3f3" />
	<text x="511.0" y="64.0" fill="black" font-family="Arial" font-size="14">33.4 ms</text>
	<rect x="600" y="40" width="1392" height="40" fill="#f3f3f3" />
	<text x="643.0" y="64.0" fill="black" font-family="Arial" font-size="14">48.9 ms</text>
	<rect x="732" y="40" width="1392" height="40" fill="#f3f3f3" />
	<text x="775.0" y="64.0" fill="black" font-family="Arial" font-size="14">57.4 ms</text>
	<rect x="864" y="40" width="1392" height="40" fill="#f3f3f3" />
	<text x="907.0" y="64.0" fill="black" font-family="Arial" font-size="14">79.7 ms</text>
	<rect x="996" y="40" width="1392" height="40" fill="#f3f3f3" />
	<text x="1043.0" y="64.0" fill="black" font-family="Arial" font-size="14">105 ms</text>
	<rect x="1128" y="40" width="1392" height="40" fill="#f3f3f3" />
	<text x="1175.0" y="64.0" fill="black" font-family="Arial" font-size="14">159 ms</text>
	<rect x="1260" y="40" width="1392" height="40" fill="#f3f3f3" />
	<text x="1307.0" y="64.0" fill="black" font-family="Arial" font-size="14">183 ms</text>
	<rect x="0" y="80" width="1392" height="40" fill="#fbbc04" />
	<text x="10" y="104.0" fill="black" font-family="Arial" font-size="14">Add / Sub (`+`,`-`)</text>
	<rect x="468" y="80" width="1392" height="40" fill="#f3f3f3" />
	<text x="511.0" y="104.0" fill="black" font-family="Arial" font-size="14">33.5 ms</text>
	<rect x="600" y="80" width="1392" height="40" fill="#f3f3f3" />
	<text x="643.0" y="104.0" fill="black" font-family="Arial" font-size="14">53.5 ms</text>
	<rect x="732" y="80" width="1392" height="40" fill="#f3f3f3" />
	<text x="775.0" y="104.0" fill="black" font-family="Arial" font-size="14">59.8 ms</text>
	<rect x="864" y="80" width="1392" height="40" fill="#f3f3f3" />
	<text x="907.0" y="104.0" fill="black" font-family="Arial" font-size="14">82.1 ms</text>
	<rect x="996" y="80" width="1392" height="40" fill="#f3f3f3" />
	<text x="1043.0" y="104.0" fill="black" font-family="Arial" font-size="14">109 ms</text>
	<rect x="1128" y="80" width="1392" height="40" fill="#f3f3f3" />
	<text x="1175.0" y="104.0" fill="black" font-family="Arial" font-size="14">165 ms</text>
	<rect x="1260" y="80" width="1392" height="40" fill="#f3f3f3" />
	<text x="1307.0" y="104.0" fill="black" font-family="Arial" font-size="14">187 ms</text>
	<rect x="0" y="120" width="1392" height="40" fill="#fbbc04" />
	<text x="10" y="144.0" fill="black" font-family="Arial" font-size="14">Mul (`x`)</text>
	<rect x="468" y="120" width="1392" height="40" fill="#f3f3f3" />
	<text x="511.0" y="144.0" fill="black" font-family="Arial" font-size="14">39.7 ms</text>
	<rect x="600" y="120" width="1392" height="40" fill="#f3f3f3" />
	<text x="643.0" y="144.0" fill="black" font-family="Arial" font-size="14">97.5 ms</text>
	<rect x="732" y="120" width="1392" height="40" fill="#f3f3f3" />
	<text x="779.0" y="144.0" fill="black" font-family="Arial" font-size="14">141 ms</text>
	<rect x="864" y="120" width="1392" height="40" fill="#f3f3f3" />
	<text x="911.0" y="144.0" fill="black" font-family="Arial" font-size="14">213 ms</text>
	<rect x="996" y="120" width="1392" height="40" fill="#f3f3f3" />
	<text x="1043.0" y="144.0" fill="black" font-family="Arial" font-size="14">400 ms</text>
	<rect x="1128" y="120" width="1392" height="40" fill="#f3f3f3" />
	<text x="1175.0" y="144.0" fill="black" font-family="Arial" font-size="14">1.14 s</text>
	<rect x="1260" y="120" width="1392" height="40" fill="#f3f3f3" />
	<text x="1307.0" y="144.0" fill="black" font-family="Arial" font-size="14">3.79 s</text>
	<rect x="0" y="160" width="1392" height="40" fill="#fbbc04" />
	<text x="10" y="184.0" fill="black" font-family="Arial" font-size="14">Equal / Not Equal (`eq`, `ne`)</text>
	<rect x="468" y="160" width="1392" height="40" fill="#f3f3f3" />
	<text x="511.0" y="184.0" fill="black" font-family="Arial" font-size="14">34.3 ms</text>
	<rect x="600" y="160" width="1392" height="40" fill="#f3f3f3" />
	<text x="643.0" y="184.0" fill="black" font-family="Arial" font-size="14">36.1 ms</text>
	<rect x="732" y="160" width="1392" height="40" fill="#f3f3f3" />
	<text x="775.0" y="184.0" fill="black" font-family="Arial" font-size="14">56.3 ms</text>
	<rect x="864" y="160" width="1392" height="40" fill="#f3f3f3" />
	<text x="907.0" y="184.0" fill="black" font-family="Arial" font-size="14">56.9 ms</text>
	<rect x="996" y="160" width="1392" height="40" fill="#f3f3f3" />
	<text x="1039.0" y="184.0" fill="black" font-family="Arial" font-size="14">81.4 ms</text>
	<rect x="1128" y="160" width="1392" height="40" fill="#f3f3f3" />
	<text x="1171.0" y="184.0" fill="black" font-family="Arial" font-size="14">82.0 ms</text>
	<rect x="1260" y="160" width="1392" height="40" fill="#f3f3f3" />
	<text x="1307.0" y="184.0" fill="black" font-family="Arial" font-size="14">104 ms</text>
	<rect x="0" y="200" width="1392" height="40" fill="#fbbc04" />
	<text x="10" y="224.0" fill="black" font-family="Arial" font-size="14">Comparisons  (`ge`, `gt`, `le`, `lt`)</text>
	<rect x="468" y="200" width="1392" height="40" fill="#f3f3f3" />
	<text x="511.0" y="224.0" fill="black" font-family="Arial" font-size="14">37.4 ms</text>
	<rect x="600" y="200" width="1392" height="40" fill="#f3f3f3" />
	<text x="643.0" y="224.0" fill="black" font-family="Arial" font-size="14">37.1 ms</text>
	<rect x="732" y="200" width="1392" height="40" fill="#f3f3f3" />
	<text x="775.0" y="224.0" fill="black" font-family="Arial" font-size="14">54.8 ms</text>
	<rect x="864" y="200" width="1392" height="40" fill="#f3f3f3" />
	<text x="907.0" y="224.0" fill="black" font-family="Arial" font-size="14">76.7 ms</text>
	<rect x="996" y="200" width="1392" height="40" fill="#f3f3f3" />
	<text x="1039.0" y="224.0" fill="black" font-family="Arial" font-size="14">99.0 ms</text>
	<rect x="1128" y="200" width="1392" height="40" fill="#f3f3f3" />
	<text x="1175.0" y="224.0" fill="black" font-family="Arial" font-size="14">145 ms</text>
	<rect x="1260" y="200" width="1392" height="40" fill="#f3f3f3" />
	<text x="1307.0" y="224.0" fill="black" font-family="Arial" font-size="14">175 ms</text>
	<rect x="0" y="240" width="1392" height="40" fill="#fbbc04" />
	<text x="10" y="264.0" fill="black" font-family="Arial" font-size="14">Max / Min   (`max`,`min`)</text>
	<rect x="468" y="240" width="1392" height="40" fill="#f3f3f3" />
	<text x="511.0" y="264.0" fill="black" font-family="Arial" font-size="14">75.6 ms</text>
	<rect x="600" y="240" width="1392" height="40" fill="#f3f3f3" />
	<text x="643.0" y="264.0" fill="black" font-family="Arial" font-size="14">76.9 ms</text>
	<rect x="732" y="240" width="1392" height="40" fill="#f3f3f3" />
	<text x="775.0" y="264.0" fill="black" font-family="Arial" font-size="14">97.6 ms</text>
	<rect x="864" y="240" width="1392" height="40" fill="#f3f3f3" />
	<text x="911.0" y="264.0" fill="black" font-family="Arial" font-size="14">121 ms</text>
	<rect x="996" y="240" width="1392" height="40" fill="#f3f3f3" />
	<text x="1043.0" y="264.0" fill="black" font-family="Arial" font-size="14">148 ms</text>
	<rect x="1128" y="240" width="1392" height="40" fill="#f3f3f3" />
	<text x="1175.0" y="264.0" fill="black" font-family="Arial" font-size="14">194 ms</text>
	<rect x="1260" y="240" width="1392" height="40" fill="#f3f3f3" />
	<text x="1307.0" y="264.0" fill="black" font-family="Arial" font-size="14">244 ms</text>
	<rect x="0" y="280" width="1392" height="40" fill="#fbbc04" />
	<text x="10" y="304.0" fill="black" font-family="Arial" font-size="14">Bitwise operations (`&#38;`, `&#124;`, `^`)</text>
	<rect x="468" y="280" width="1392" height="40" fill="#f3f3f3" />
	<text x="511.0" y="304.0" fill="black" font-family="Arial" font-size="14">20.2 ms</text>
	<rect x="600" y="280" width="1392" height="40" fill="#f3f3f3" />
	<text x="643.0" y="304.0" fill="black" font-family="Arial" font-size="14">18.7 ms</text>
	<rect x="732" y="280" width="1392" height="40" fill="#f3f3f3" />
	<text x="775.0" y="304.0" fill="black" font-family="Arial" font-size="14">19.7 ms</text>
	<rect x="864" y="280" width="1392" height="40" fill="#f3f3f3" />
	<text x="907.0" y="304.0" fill="black" font-family="Arial" font-size="14">20.6 ms</text>
	<rect x="996" y="280" width="1392" height="40" fill="#f3f3f3" />
	<text x="1039.0" y="304.0" fill="black" font-family="Arial" font-size="14">22.9 ms</text>
	<rect x="1128" y="280" width="1392" height="40" fill="#f3f3f3" />
	<text x="1171.0" y="304.0" fill="black" font-family="Arial" font-size="14">23.8 ms</text>
	<rect x="1260" y="280" width="1392" height="40" fill="#f3f3f3" />
	<text x="1303.0" y="304.0" fill="black" font-family="Arial" font-size="14">26.3 ms</text>
	<rect x="0" y="320" width="1392" height="40" fill="#fbbc04" />
	<text x="10" y="344.0" fill="black" font-family="Arial" font-size="14">Div / Rem  (`/`, `%`)</text>
	<rect x="468" y="320" width="1392" height="40" fill="#f3f3f3" />
	<text x="515.0" y="344.0" fill="black" font-family="Arial" font-size="14">295 ms</text>
	<rect x="600" y="320" width="1392" height="40" fill="#f3f3f3" />
	<text x="647.0" y="344.0" fill="black" font-family="Arial" font-size="14">644 ms</text>
	<rect x="732" y="320" width="1392" height="40" fill="#f3f3f3" />
	<text x="779.0" y="344.0" fill="black" font-family="Arial" font-size="14">1.49 s</text>
	<rect x="864" y="320" width="1392" height="40" fill="#f3f3f3" />
	<text x="911.0" y="344.0" fill="black" font-family="Arial" font-size="14">3.44 s</text>
	<rect x="996" y="320" width="1392" height="40" fill="#f3f3f3" />
	<text x="1043.0" y="344.0" fill="black" font-family="Arial" font-size="14">8.49 s</text>
	<rect x="1128" y="320" width="1392" height="40" fill="#f3f3f3" />
	<text x="1175.0" y="344.0" fill="black" font-family="Arial" font-size="14">20.9 s</text>
	<rect x="1260" y="320" width="1392" height="40" fill="#f3f3f3" />
	<text x="1307.0" y="344.0" fill="black" font-family="Arial" font-size="14">54.6 s</text>
	<rect x="0" y="360" width="1392" height="40" fill="#fbbc04" />
	<text x="10" y="384.0" fill="black" font-family="Arial" font-size="14">Left / Right Shifts (`&#60;&#60;`, `&#62;&#62;`)</text>
	<rect x="468" y="360" width="1392" height="40" fill="#f3f3f3" />
	<text x="511.0" y="384.0" fill="black" font-family="Arial" font-size="14">34.7 ms</text>
	<rect x="600" y="360" width="1392" height="40" fill="#f3f3f3" />
	<text x="643.0" y="384.0" fill="black" font-family="Arial" font-size="14">58.8 ms</text>
	<rect x="732" y="360" width="1392" height="40" fill="#f3f3f3" />
	<text x="775.0" y="384.0" fill="black" font-family="Arial" font-size="14">81.9 ms</text>
	<rect x="864" y="360" width="1392" height="40" fill="#f3f3f3" />
	<text x="911.0" y="384.0" fill="black" font-family="Arial" font-size="14">107 ms</text>
	<rect x="996" y="360" width="1392" height="40" fill="#f3f3f3" />
	<text x="1043.0" y="384.0" fill="black" font-family="Arial" font-size="14">142 ms</text>
	<rect x="1128" y="360" width="1392" height="40" fill="#f3f3f3" />
	<text x="1175.0" y="384.0" fill="black" font-family="Arial" font-size="14">178 ms</text>
	<rect x="1260" y="360" width="1392" height="40" fill="#f3f3f3" />
	<text x="1307.0" y="384.0" fill="black" font-family="Arial" font-size="14">248 ms</text>
	<rect x="0" y="400" width="1392" height="40" fill="#fbbc04" />
	<text x="10" y="424.0" fill="black" font-family="Arial" font-size="14">Left / Right Rotations (`left_rotate`, `right_rotate`)</text>
	<rect x="468" y="400" width="1392" height="40" fill="#f3f3f3" />
	<text x="511.0" y="424.0" fill="black" font-family="Arial" font-size="14">39.7 ms</text>
	<rect x="600" y="400" width="1392" height="40" fill="#f3f3f3" />
	<text x="643.0" y="424.0" fill="black" font-family="Arial" font-size="14">59.7 ms</text>
	<rect x="732" y="400" width="1392" height="40" fill="#f3f3f3" />
	<text x="775.0" y="424.0" fill="black" font-family="Arial" font-size="14">81.4 ms</text>
	<rect x="864" y="400" width="1392" height="40" fill="#f3f3f3" />
	<text x="911.0" y="424.0" fill="black" font-family="Arial" font-size="14">107 ms</text>
	<rect x="996" y="400" width="1392" height="40" fill="#f3f3f3" />
	<text x="1043.0" y="424.0" fill="black" font-family="Arial" font-size="14">142 ms</text>
	<rect x="1128" y="400" width="1392" height="40" fill="#f3f3f3" />
	<text x="1175.0" y="424.0" fill="black" font-family="Arial" font-size="14">186 ms</text>
	<rect x="1260" y="400" width="1392" height="40" fill="#f3f3f3" />
	<text x="1307.0" y="424.0" fill="black" font-family="Arial" font-size="14">249 ms</text>
	<rect x="0" y="440" width="1392" height="40" fill="#fbbc04" />
	<text x="10" y="464.0" fill="black" font-family="Arial" font-size="14">Leading / Trailing zeros/ones</text>
	<rect x="468" y="440" width="1392" height="40" fill="#f3f3f3" />
	<text x="511.0" y="464.0" fill="black" font-family="Arial" font-size="14">77.1 ms</text>
	<rect x="600" y="440" width="1392" height="40" fill="#f3f3f3" />
	<text x="643.0" y="464.0" fill="black" font-family="Arial" font-size="14">95.7 ms</text>
	<rect x="732" y="440" width="1392" height="40" fill="#f3f3f3" />
	<text x="779.0" y="464.0" fill="black" font-family="Arial" font-size="14">159 ms</text>
	<rect x="864" y="440" width="1392" height="40" fill="#f3f3f3" />
	<text x="911.0" y="464.0" fill="black" font-family="Arial" font-size="14">182 ms</text>
	<rect x="996" y="440" width="1392" height="40" fill="#f3f3f3" />
	<text x="1043.0" y="464.0" fill="black" font-family="Arial" font-size="14">255 ms</text>
	<rect x="1128" y="440" width="1392" height="40" fill="#f3f3f3" />
	<text x="1175.0" y="464.0" fill="black" font-family="Arial" font-size="14">304 ms</text>
	<rect x="1260" y="440" width="1392" height="40" fill="#f3f3f3" />
	<text x="1307.0" y="464.0" fill="black" font-family="Arial" font-size="14">345 ms</text>
	<rect x="0" y="480" width="1392" height="40" fill="#fbbc04" />
	<text x="10" y="504.0" fill="black" font-family="Arial" font-size="14">Log2</text>
	<rect x="468" y="480" width="1392" height="40" fill="#f3f3f3" />
	<text x="511.0" y="504.0" fill="black" font-family="Arial" font-size="14">90.4 ms</text>
	<rect x="600" y="480" width="1392" height="40" fill="#f3f3f3" />
	<text x="647.0" y="504.0" fill="black" font-family="Arial" font-size="14">114 ms</text>
	<rect x="732" y="480" width="1392" height="40" fill="#f3f3f3" />
	<text x="779.0" y="504.0" fill="black" font-family="Arial" font-size="14">173 ms</text>
	<rect x="864" y="480" width="1392" height="40" fill="#f3f3f3" />
	<text x="911.0" y="504.0" fill="black" font-family="Arial" font-size="14">199 ms</text>
	<rect x="996" y="480" width="1392" height="40" fill="#f3f3f3" />
	<text x="1043.0" y="504.0" fill="black" font-family="Arial" font-size="14">280 ms</text>
	<rect x="1128" y="480" width="1392" height="40" fill="#f3f3f3" />
	<text x="1175.0" y="504.0" fill="black" font-family="Arial" font-size="14">327 ms</text>
	<rect x="1260" y="480" width="1392" height="40" fill="#f3f3f3" />
	<text x="1307.0" y="504.0" fill="black" font-family="Arial" font-size="14">369 ms</text>

    <!-- Borders -->
    <line x1="0" y1="0" x2="0" y2="520" stroke="white" />
	<line x1="468" y1="0" x2="468" y2="520" stroke="white" />
	<line x1="600" y1="0" x2="600" y2="520" stroke="white" />
	<line x1="732" y1="0" x2="732" y2="520" stroke="white" />
	<line x1="864" y1="0" x2="864" y2="520" stroke="white" />
	<line x1="996" y1="0" x2="996" y2="520" stroke="white" />
	<line x1="1128" y1="0" x2="1128" y2="520" stroke="white" />
	<line x1="1260" y1="0" x2="1260" y2="520" stroke="white" />
	<line x1="0" y1="0" x2="1392" y2="0" stroke="white" />
	<line x1="0" y1="40" x2="1392" y2="40" stroke="white" />
	<line x1="0" y1="80" x2="1392" y2="80" stroke="white" />
	<line x1="0" y1="120" x2="1392" y2="120" stroke="white" />
	<line x1="0" y1="160" x2="1392" y2="160" stroke="white" />
	<line x1="0" y1="200" x2="1392" y2="200" stroke="white" />
	<line x1="0" y1="240" x2="1392" y2="240" stroke="white" />
	<line x1="0" y1="280" x2="1392" y2="280" stroke="white" />
	<line x1="0" y1="320" x2="1392" y2="320" stroke="white" />
	<line x1="0" y1="360" x2="1392" y2="360" stroke="white" />
	<line x1="0" y1="400" x2="1392" y2="400" stroke="white" />
	<line x1="0" y1="440" x2="1392" y2="440" stroke="white" />
	<line x1="0" y1="480" x2="1392" y2="480" stroke="white" />
	<line x1="0" y1="520" x2="1392" y2="520" stroke="white" />
</svg>
