<svg xmlns="http://www.w3.org/2000/svg" width="1268.0" height="440" viewBox="0 0 1268.0 440">
    <!-- Header Row -->
    <rect x="0" y="0" width="1268.0" height="40" fill="black" />
	<text x="10" y="24.0" fill="white" font-family="Arial" font-size="14">Operation \ Size</text>
	<text x="383.0" y="24.0" fill="white" font-family="Arial" font-size="14">FheUint4</text>
	<text x="515.0" y="24.0" fill="white" font-family="Arial" font-size="14">FheUint8</text>
	<text x="643.0" y="24.0" fill="white" font-family="Arial" font-size="14">FheUint16</text>
	<text x="775.0" y="24.0" fill="white" font-family="Arial" font-size="14">FheUint32</text>
	<text x="907.0" y="24.0" fill="white" font-family="Arial" font-size="14">FheUint64</text>
	<text x="1035.0" y="24.0" fill="white" font-family="Arial" font-size="14">FheUint128</text>
	<text x="1167.0" y="24.0" fill="white" font-family="Arial" font-size="14">FheUint256</text>

    <!-- Data Rows -->
    <rect x="0" y="40" width="1268.0" height="40" fill="#fbbc04" />
	<text x="10" y="64.0" fill="black" font-family="Arial" font-size="14">Add / Sub (`+`,`-`)</text>
	<rect x="344.0" y="40" width="1268.0" height="40" fill="#f3f3f3" />
	<text x="387.0" y="64.0" fill="black" font-family="Arial" font-size="14">11.2 ms</text>
	<rect x="476.0" y="40" width="1268.0" height="40" fill="#f3f3f3" />
	<text x="519.0" y="64.0" fill="black" font-family="Arial" font-size="14">11.4 ms</text>
	<rect x="608.0" y="40" width="1268.0" height="40" fill="#f3f3f3" />
	<text x="651.0" y="64.0" fill="black" font-family="Arial" font-size="14">11.7 ms</text>
	<rect x="740.0" y="40" width="1268.0" height="40" fill="#f3f3f3" />
	<text x="783.0" y="64.0" fill="black" font-family="Arial" font-size="14">16.5 ms</text>
	<rect x="872.0" y="40" width="1268.0" height="40" fill="#f3f3f3" />
	<text x="915.0" y="64.0" fill="black" font-family="Arial" font-size="14">22.0 ms</text>
	<rect x="1004.0" y="40" width="1268.0" height="40" fill="#f3f3f3" />
	<text x="1047.0" y="64.0" fill="black" font-family="Arial" font-size="14">36.8 ms</text>
	<rect x="1136.0" y="40" width="1268.0" height="40" fill="#f3f3f3" />
	<text x="1179.0" y="64.0" fill="black" font-family="Arial" font-size="14">57.8 ms</text>
	<rect x="0" y="80" width="1268.0" height="40" fill="#fbbc04" />
	<text x="10" y="104.0" fill="black" font-family="Arial" font-size="14">Mul (`x`)</text>
	<rect x="344.0" y="80" width="1268.0" height="40" fill="#f3f3f3" />
	<text x="387.0" y="104.0" fill="black" font-family="Arial" font-size="14">11.5 ms</text>
	<rect x="476.0" y="80" width="1268.0" height="40" fill="#f3f3f3" />
	<text x="519.0" y="104.0" fill="black" font-family="Arial" font-size="14">18.1 ms</text>
	<rect x="608.0" y="80" width="1268.0" height="40" fill="#f3f3f3" />
	<text x="651.0" y="104.0" fill="black" font-family="Arial" font-size="14">24.9 ms</text>
	<rect x="740.0" y="80" width="1268.0" height="40" fill="#f3f3f3" />
	<text x="783.0" y="104.0" fill="black" font-family="Arial" font-size="14">41.7 ms</text>
	<rect x="872.0" y="80" width="1268.0" height="40" fill="#f3f3f3" />
	<text x="915.0" y="104.0" fill="black" font-family="Arial" font-size="14">93.5 ms</text>
	<rect x="1004.0" y="80" width="1268.0" height="40" fill="#f3f3f3" />
	<text x="1051.0" y="104.0" fill="black" font-family="Arial" font-size="14">271 ms</text>
	<rect x="1136.0" y="80" width="1268.0" height="40" fill="#f3f3f3" />
	<text x="1183.0" y="104.0" fill="black" font-family="Arial" font-size="14">991 ms</text>
	<rect x="0" y="120" width="1268.0" height="40" fill="#fbbc04" />
	<text x="10" y="144.0" fill="black" font-family="Arial" font-size="14">Equal / Not Equal (`eq`, `ne`)</text>
	<rect x="344.0" y="120" width="1268.0" height="40" fill="#f3f3f3" />
	<text x="387.0" y="144.0" fill="black" font-family="Arial" font-size="14">8.04 ms</text>
	<rect x="476.0" y="120" width="1268.0" height="40" fill="#f3f3f3" />
	<text x="519.0" y="144.0" fill="black" font-family="Arial" font-size="14">8.26 ms</text>
	<rect x="608.0" y="120" width="1268.0" height="40" fill="#f3f3f3" />
	<text x="651.0" y="144.0" fill="black" font-family="Arial" font-size="14">8.53 ms</text>
	<rect x="740.0" y="120" width="1268.0" height="40" fill="#f3f3f3" />
	<text x="783.0" y="144.0" fill="black" font-family="Arial" font-size="14">12.4 ms</text>
	<rect x="872.0" y="120" width="1268.0" height="40" fill="#f3f3f3" />
	<text x="915.0" y="144.0" fill="black" font-family="Arial" font-size="14">13.2 ms</text>
	<rect x="1004.0" y="120" width="1268.0" height="40" fill="#f3f3f3" />
	<text x="1047.0" y="144.0" fill="black" font-family="Arial" font-size="14">18.0 ms</text>
	<rect x="1136.0" y="120" width="1268.0" height="40" fill="#f3f3f3" />
	<text x="1179.0" y="144.0" fill="black" font-family="Arial" font-size="14">21.3 ms</text>
	<rect x="0" y="160" width="1268.0" height="40" fill="#fbbc04" />
	<text x="10" y="184.0" fill="black" font-family="Arial" font-size="14">Comparisons  (`ge`, `gt`, `le`, `lt`)</text>
	<rect x="344.0" y="160" width="1268.0" height="40" fill="#f3f3f3" />
	<text x="391.0" y="184.0" fill="black" font-family="Arial" font-size="14">9.6 ms</text>
	<rect x="476.0" y="160" width="1268.0" height="40" fill="#f3f3f3" />
	<text x="519.0" y="184.0" fill="black" font-family="Arial" font-size="14">9.95 ms</text>
	<rect x="608.0" y="160" width="1268.0" height="40" fill="#f3f3f3" />
	<text x="651.0" y="184.0" fill="black" font-family="Arial" font-size="14">13.7 ms</text>
	<rect x="740.0" y="160" width="1268.0" height="40" fill="#f3f3f3" />
	<text x="783.0" y="184.0" fill="black" font-family="Arial" font-size="14">17.4 ms</text>
	<rect x="872.0" y="160" width="1268.0" height="40" fill="#f3f3f3" />
	<text x="915.0" y="184.0" fill="black" font-family="Arial" font-size="14">21.7 ms</text>
	<rect x="1004.0" y="160" width="1268.0" height="40" fill="#f3f3f3" />
	<text x="1047.0" y="184.0" fill="black" font-family="Arial" font-size="14">27.4 ms</text>
	<rect x="1136.0" y="160" width="1268.0" height="40" fill="#f3f3f3" />
	<text x="1179.0" y="184.0" fill="black" font-family="Arial" font-size="14">35.3 ms</text>
	<rect x="0" y="200" width="1268.0" height="40" fill="#fbbc04" />
	<text x="10" y="224.0" fill="black" font-family="Arial" font-size="14">Max / Min   (`max`,`min`)</text>
	<rect x="344.0" y="200" width="1268.0" height="40" fill="#f3f3f3" />
	<text x="387.0" y="224.0" fill="black" font-family="Arial" font-size="14">16.8 ms</text>
	<rect x="476.0" y="200" width="1268.0" height="40" fill="#f3f3f3" />
	<text x="519.0" y="224.0" fill="black" font-family="Arial" font-size="14">17.0 ms</text>
	<rect x="608.0" y="200" width="1268.0" height="40" fill="#f3f3f3" />
	<text x="651.0" y="224.0" fill="black" font-family="Arial" font-size="14">21.6 ms</text>
	<rect x="740.0" y="200" width="1268.0" height="40" fill="#f3f3f3" />
	<text x="783.0" y="224.0" fill="black" font-family="Arial" font-size="14">26.4 ms</text>
	<rect x="872.0" y="200" width="1268.0" height="40" fill="#f3f3f3" />
	<text x="915.0" y="224.0" fill="black" font-family="Arial" font-size="14">33.4 ms</text>
	<rect x="1004.0" y="200" width="1268.0" height="40" fill="#f3f3f3" />
	<text x="1047.0" y="224.0" fill="black" font-family="Arial" font-size="14">46.2 ms</text>
	<rect x="1136.0" y="200" width="1268.0" height="40" fill="#f3f3f3" />
	<text x="1179.0" y="224.0" fill="black" font-family="Arial" font-size="14">68.1 ms</text>
	<rect x="0" y="240" width="1268.0" height="40" fill="#fbbc04" />
	<text x="10" y="264.0" fill="black" font-family="Arial" font-size="14">Bitwise operations (`&#38;`, `&#124;`, `^`)</text>
	<rect x="344.0" y="240" width="1268.0" height="40" fill="#f3f3f3" />
	<text x="387.0" y="264.0" fill="black" font-family="Arial" font-size="14">3.41 ms</text>
	<rect x="476.0" y="240" width="1268.0" height="40" fill="#f3f3f3" />
	<text x="519.0" y="264.0" fill="black" font-family="Arial" font-size="14">3.64 ms</text>
	<rect x="608.0" y="240" width="1268.0" height="40" fill="#f3f3f3" />
	<text x="651.0" y="264.0" fill="black" font-family="Arial" font-size="14">3.79 ms</text>
	<rect x="740.0" y="240" width="1268.0" height="40" fill="#f3f3f3" />
	<text x="783.0" y="264.0" fill="black" font-family="Arial" font-size="14">4.36 ms</text>
	<rect x="872.0" y="240" width="1268.0" height="40" fill="#f3f3f3" />
	<text x="915.0" y="264.0" fill="black" font-family="Arial" font-size="14">4.91 ms</text>
	<rect x="1004.0" y="240" width="1268.0" height="40" fill="#f3f3f3" />
	<text x="1047.0" y="264.0" fill="black" font-family="Arial" font-size="14">6.54 ms</text>
	<rect x="1136.0" y="240" width="1268.0" height="40" fill="#f3f3f3" />
	<text x="1179.0" y="264.0" fill="black" font-family="Arial" font-size="14">12.1 ms</text>
	<rect x="0" y="280" width="1268.0" height="40" fill="#fbbc04" />
	<text x="10" y="304.0" fill="black" font-family="Arial" font-size="14">Div  (`/`)</text>
	<rect x="344.0" y="280" width="1268.0" height="40" fill="#f3f3f3" />
	<text x="387.0" y="304.0" fill="black" font-family="Arial" font-size="14">15.7 ms</text>
	<rect x="476.0" y="280" width="1268.0" height="40" fill="#f3f3f3" />
	<text x="519.0" y="304.0" fill="black" font-family="Arial" font-size="14">26.7 ms</text>
	<rect x="608.0" y="280" width="1268.0" height="40" fill="#f3f3f3" />
	<text x="651.0" y="304.0" fill="black" font-family="Arial" font-size="14">39.4 ms</text>
	<rect x="740.0" y="280" width="1268.0" height="40" fill="#f3f3f3" />
	<text x="783.0" y="304.0" fill="black" font-family="Arial" font-size="14">71.8 ms</text>
	<rect x="872.0" y="280" width="1268.0" height="40" fill="#f3f3f3" />
	<text x="919.0" y="304.0" fill="black" font-family="Arial" font-size="14">176 ms</text>
	<rect x="1004.0" y="280" width="1268.0" height="40" fill="#f3f3f3" />
	<text x="1051.0" y="304.0" fill="black" font-family="Arial" font-size="14">544 ms</text>
	<rect x="1136.0" y="280" width="1268.0" height="40" fill="#f3f3f3" />
	<text x="1183.0" y="304.0" fill="black" font-family="Arial" font-size="14">1.99 s</text>
	<rect x="0" y="320" width="1268.0" height="40" fill="#fbbc04" />
	<text x="10" y="344.0" fill="black" font-family="Arial" font-size="14">Rem  (`%`)</text>
	<rect x="344.0" y="320" width="1268.0" height="40" fill="#f3f3f3" />
	<text x="387.0" y="344.0" fill="black" font-family="Arial" font-size="14">36.4 ms</text>
	<rect x="476.0" y="320" width="1268.0" height="40" fill="#f3f3f3" />
	<text x="519.0" y="344.0" fill="black" font-family="Arial" font-size="14">56.9 ms</text>
	<rect x="608.0" y="320" width="1268.0" height="40" fill="#f3f3f3" />
	<text x="651.0" y="344.0" fill="black" font-family="Arial" font-size="14">77.4 ms</text>
	<rect x="740.0" y="320" width="1268.0" height="40" fill="#f3f3f3" />
	<text x="787.0" y="344.0" fill="black" font-family="Arial" font-size="14">131 ms</text>
	<rect x="872.0" y="320" width="1268.0" height="40" fill="#f3f3f3" />
	<text x="919.0" y="344.0" fill="black" font-family="Arial" font-size="14">292 ms</text>
	<rect x="1004.0" y="320" width="1268.0" height="40" fill="#f3f3f3" />
	<text x="1051.0" y="344.0" fill="black" font-family="Arial" font-size="14">839 ms</text>
	<rect x="1136.0" y="320" width="1268.0" height="40" fill="#f3f3f3" />
	<text x="1183.0" y="344.0" fill="black" font-family="Arial" font-size="14">2.97 s</text>
	<rect x="0" y="360" width="1268.0" height="40" fill="#fbbc04" />
	<text x="10" y="384.0" fill="black" font-family="Arial" font-size="14">Left / Right Shifts (`&#60;&#60;`, `&#62;&#62;`)</text>
	<rect x="344.0" y="360" width="1268.0" height="40" fill="#f3f3f3" />
	<text x="387.0" y="384.0" fill="black" font-family="Arial" font-size="14">3.54 ms</text>
	<rect x="476.0" y="360" width="1268.0" height="40" fill="#f3f3f3" />
	<text x="519.0" y="384.0" fill="black" font-family="Arial" font-size="14">3.55 ms</text>
	<rect x="608.0" y="360" width="1268.0" height="40" fill="#f3f3f3" />
	<text x="655.0" y="384.0" fill="black" font-family="Arial" font-size="14">3.7 ms</text>
	<rect x="740.0" y="360" width="1268.0" height="40" fill="#f3f3f3" />
	<text x="783.0" y="384.0" fill="black" font-family="Arial" font-size="14">4.28 ms</text>
	<rect x="872.0" y="360" width="1268.0" height="40" fill="#f3f3f3" />
	<text x="915.0" y="384.0" fill="black" font-family="Arial" font-size="14">4.82 ms</text>
	<rect x="1004.0" y="360" width="1268.0" height="40" fill="#f3f3f3" />
	<text x="1047.0" y="384.0" fill="black" font-family="Arial" font-size="14">6.45 ms</text>
	<rect x="1136.0" y="360" width="1268.0" height="40" fill="#f3f3f3" />
	<text x="1179.0" y="384.0" fill="black" font-family="Arial" font-size="14">11.9 ms</text>
	<rect x="0" y="400" width="1268.0" height="40" fill="#fbbc04" />
	<text x="10" y="424.0" fill="black" font-family="Arial" font-size="14">Left / Right Rotations (`left_rotate`, `right_rotate`)</text>
	<rect x="344.0" y="400" width="1268.0" height="40" fill="#f3f3f3" />
	<text x="387.0" y="424.0" fill="black" font-family="Arial" font-size="14">3.54 ms</text>
	<rect x="476.0" y="400" width="1268.0" height="40" fill="#f3f3f3" />
	<text x="519.0" y="424.0" fill="black" font-family="Arial" font-size="14">3.55 ms</text>
	<rect x="608.0" y="400" width="1268.0" height="40" fill="#f3f3f3" />
	<text x="651.0" y="424.0" fill="black" font-family="Arial" font-size="14">3.71 ms</text>
	<rect x="740.0" y="400" width="1268.0" height="40" fill="#f3f3f3" />
	<text x="783.0" y="424.0" fill="black" font-family="Arial" font-size="14">4.28 ms</text>
	<rect x="872.0" y="400" width="1268.0" height="40" fill="#f3f3f3" />
	<text x="915.0" y="424.0" fill="black" font-family="Arial" font-size="14">4.82 ms</text>
	<rect x="1004.0" y="400" width="1268.0" height="40" fill="#f3f3f3" />
	<text x="1047.0" y="424.0" fill="black" font-family="Arial" font-size="14">6.46 ms</text>
	<rect x="1136.0" y="400" width="1268.0" height="40" fill="#f3f3f3" />
	<text x="1179.0" y="424.0" fill="black" font-family="Arial" font-size="14">12.0 ms</text>

    <!-- Borders -->
    <line x1="0" y1="0" x2="0" y2="440" stroke="white" />
	<line x1="344.0" y1="0" x2="344.0" y2="440" stroke="white" />
	<line x1="476.0" y1="0" x2="476.0" y2="440" stroke="white" />
	<line x1="608.0" y1="0" x2="608.0" y2="440" stroke="white" />
	<line x1="740.0" y1="0" x2="740.0" y2="440" stroke="white" />
	<line x1="872.0" y1="0" x2="872.0" y2="440" stroke="white" />
	<line x1="1004.0" y1="0" x2="1004.0" y2="440" stroke="white" />
	<line x1="1136.0" y1="0" x2="1136.0" y2="440" stroke="white" />
	<line x1="0" y1="0" x2="1268.0" y2="0" stroke="white" />
	<line x1="0" y1="40" x2="1268.0" y2="40" stroke="white" />
	<line x1="0" y1="80" x2="1268.0" y2="80" stroke="white" />
	<line x1="0" y1="120" x2="1268.0" y2="120" stroke="white" />
	<line x1="0" y1="160" x2="1268.0" y2="160" stroke="white" />
	<line x1="0" y1="200" x2="1268.0" y2="200" stroke="white" />
	<line x1="0" y1="240" x2="1268.0" y2="240" stroke="white" />
	<line x1="0" y1="280" x2="1268.0" y2="280" stroke="white" />
	<line x1="0" y1="320" x2="1268.0" y2="320" stroke="white" />
	<line x1="0" y1="360" x2="1268.0" y2="360" stroke="white" />
	<line x1="0" y1="400" x2="1268.0" y2="400" stroke="white" />
	<line x1="0" y1="440" x2="1268.0" y2="440" stroke="white" />
</svg>
